<svg width="18" height="11" viewBox="0 0 18 11" fill="none" xmlns="http://www.w3.org/2000/svg">
<g clip-path="url(#clip0_1626_27)">
<path d="M15.7032 3.3871L9.05409 8.82258C8.97493 8.8871 8.88918 8.93269 8.79683 8.95936C8.70449 8.98645 8.60554 9 8.5 9C8.39446 9 8.29551 8.98645 8.20317 8.95936C8.11082 8.93269 8.02507 8.8871 7.94591 8.82258L1.27704 3.3871C1.09235 3.23656 1 3.04839 1 2.82258C1 2.59677 1.09894 2.40323 1.29683 2.24193C1.49472 2.08064 1.72559 2 1.98945 2C2.2533 2 2.48417 2.08064 2.68206 2.24193L8.49969 5.01173L14.3179 2.24193C14.5026 2.0914 14.7301 2.01613 15.0003 2.01613C15.271 2.01613 15.5053 2.09677 15.7032 2.25806C15.9011 2.41935 16 2.60753 16 2.82258C16 3.03763 15.9011 3.22581 15.7032 3.3871Z" fill="white"/>
</g>
<defs>
<clipPath id="clip0_1626_27">
<rect width="11" height="18" fill="white" transform="translate(0 11) rotate(-90)"/>
</clipPath>
</defs>
</svg>
