<svg width="250" height="167" viewBox="0 0 250 167" fill="none" xmlns="http://www.w3.org/2000/svg">
<rect width="250" height="167" fill="black"/>
<path d="M97.8111 70.8182V97H92.2756V70.8182H97.8111ZM102.365 70.8182H109.192L116.402 88.4091H116.709L123.919 70.8182H130.746V97H125.377V79.9588H125.159L118.384 96.8722H114.728L107.952 79.8949H107.735V97H102.365V70.8182ZM152.668 79.2812C152.489 78.6591 152.237 78.1094 151.913 77.6321C151.589 77.1463 151.193 76.7372 150.724 76.4048C150.264 76.0639 149.736 75.804 149.139 75.625C148.551 75.446 147.899 75.3565 147.183 75.3565C145.845 75.3565 144.669 75.6889 143.655 76.3537C142.649 77.0185 141.865 77.9858 141.303 79.2557C140.74 80.517 140.459 82.0597 140.459 83.8835C140.459 85.7074 140.736 87.2585 141.29 88.5369C141.844 89.8153 142.628 90.7912 143.642 91.4645C144.656 92.1293 145.854 92.4616 147.234 92.4616C148.487 92.4616 149.557 92.2401 150.443 91.7969C151.338 91.3452 152.02 90.7102 152.489 89.892C152.966 89.0739 153.205 88.1065 153.205 86.9901L154.33 87.1562H147.58V82.9886H158.536V86.2869C158.536 88.5881 158.05 90.5653 157.078 92.2188C156.107 93.8636 154.768 95.1335 153.064 96.0284C151.359 96.9148 149.408 97.358 147.209 97.358C144.754 97.358 142.598 96.8168 140.74 95.7344C138.882 94.6435 137.433 93.0966 136.393 91.0938C135.362 89.0824 134.847 86.696 134.847 83.9347C134.847 81.8125 135.153 79.9205 135.767 78.2585C136.389 76.5881 137.259 75.1733 138.375 74.0142C139.491 72.8551 140.791 71.973 142.274 71.3679C143.757 70.7628 145.364 70.4602 147.094 70.4602C148.577 70.4602 149.957 70.6776 151.236 71.1122C152.514 71.5384 153.648 72.1435 154.636 72.9276C155.634 73.7116 156.447 74.6449 157.078 75.7273C157.709 76.8011 158.114 77.9858 158.293 79.2812H152.668Z" fill="white"/>
</svg>
