<svg width="523" height="401" viewBox="0 0 523 401" fill="none" xmlns="http://www.w3.org/2000/svg">
<path d="M474.21 77.3218C480.253 87.7886 480.179 101.202 474.747 116.572C469.316 131.941 458.548 149.2 443.317 167.279C412.857 203.433 364.619 242.779 305.817 276.728C247.016 310.677 188.822 332.78 142.282 341.082C119.009 345.233 98.6786 345.928 82.6536 342.948C66.6263 339.967 54.9735 333.324 48.9305 322.857C42.8875 312.39 42.9609 298.977 48.3928 283.606C53.8239 268.238 64.5915 250.979 79.8229 232.9C110.283 196.746 158.521 157.4 217.323 123.45C276.124 89.5013 334.318 67.3989 380.858 59.097C404.131 54.9456 424.461 54.2501 440.486 57.2308C456.514 60.212 468.167 66.855 474.21 77.3218Z" stroke="#F7E99F"/>
<path d="M486.429 103.213C491.235 114.303 489.627 127.619 482.471 142.267C475.317 156.913 462.645 172.826 445.444 189.043C411.046 221.473 358.622 255.04 296.321 282.036C234.02 309.032 173.679 324.328 126.494 327.249C102.9 328.709 82.6232 327.073 67.0447 322.278C51.4639 317.482 40.648 309.549 35.8426 298.46C31.0373 287.37 32.6454 274.053 39.8009 259.405C46.9552 244.76 59.6275 228.846 76.828 212.63C111.226 180.199 163.65 146.633 225.951 119.637C288.252 92.6407 348.593 77.3441 395.778 74.4235C419.372 72.9631 439.649 74.599 455.227 79.3943C470.808 84.1903 481.624 92.1233 486.429 103.213Z" stroke="#F7E99F"/>
<path d="M67.2012 190V175.942L67.7512 176.514H61.9432V174.6H74.6372V176.514H68.8292L69.3572 175.942V190H67.2012ZM76.6798 190V178.34H82.0918C83.4558 178.34 84.5265 178.604 85.3038 179.132C86.0958 179.645 86.4918 180.379 86.4918 181.332C86.4918 182.285 86.1178 183.026 85.3698 183.554C84.6365 184.067 83.6611 184.324 82.4438 184.324L82.7738 183.752C84.1671 183.752 85.2011 184.009 85.8758 184.522C86.5505 185.035 86.8878 185.791 86.8878 186.788C86.8878 187.8 86.5065 188.592 85.7438 189.164C84.9958 189.721 83.8445 190 82.2898 190H76.6798ZM78.7478 188.372H82.1358C83.0158 188.372 83.6758 188.24 84.1158 187.976C84.5558 187.697 84.7758 187.257 84.7758 186.656C84.7758 186.04 84.5705 185.593 84.1598 185.314C83.7638 185.021 83.1331 184.874 82.2678 184.874H78.7478V188.372ZM78.7478 183.356H81.9158C82.7225 183.356 83.3311 183.209 83.7418 182.916C84.1671 182.608 84.3798 182.183 84.3798 181.64C84.3798 181.083 84.1671 180.665 83.7418 180.386C83.3311 180.107 82.7225 179.968 81.9158 179.968H78.7478V183.356ZM95.1875 190.132C94.0141 190.132 92.9728 189.875 92.0635 189.362C91.1541 188.849 90.4355 188.145 89.9075 187.25C89.3795 186.341 89.1155 185.314 89.1155 184.17C89.1155 183.011 89.3795 181.985 89.9075 181.09C90.4355 180.195 91.1541 179.499 92.0635 179C92.9728 178.487 94.0141 178.23 95.1875 178.23C96.3461 178.23 97.3801 178.487 98.2895 179C99.2135 179.499 99.9321 180.195 100.445 181.09C100.973 181.97 101.237 182.997 101.237 184.17C101.237 185.329 100.973 186.355 100.445 187.25C99.9321 188.145 99.2135 188.849 98.2895 189.362C97.3801 189.875 96.3461 190.132 95.1875 190.132ZM95.1875 188.284C95.9355 188.284 96.6028 188.115 97.1895 187.778C97.7908 187.441 98.2601 186.964 98.5975 186.348C98.9348 185.717 99.1035 184.991 99.1035 184.17C99.1035 183.334 98.9348 182.615 98.5975 182.014C98.2601 181.398 97.7908 180.921 97.1895 180.584C96.6028 180.247 95.9355 180.078 95.1875 180.078C94.4395 180.078 93.7721 180.247 93.1855 180.584C92.5988 180.921 92.1295 181.398 91.7775 182.014C91.4255 182.615 91.2495 183.334 91.2495 184.17C91.2495 184.991 91.4255 185.717 91.7775 186.348C92.1295 186.964 92.5988 187.441 93.1855 187.778C93.7721 188.115 94.4395 188.284 95.1875 188.284ZM110.469 190.132C109.501 190.132 108.614 189.912 107.807 189.472C107.015 189.017 106.377 188.35 105.893 187.47C105.424 186.59 105.189 185.49 105.189 184.17C105.189 182.85 105.417 181.75 105.871 180.87C106.341 179.99 106.971 179.33 107.763 178.89C108.57 178.45 109.472 178.23 110.469 178.23C111.613 178.23 112.625 178.479 113.505 178.978C114.385 179.477 115.082 180.173 115.595 181.068C116.109 181.948 116.365 182.982 116.365 184.17C116.365 185.358 116.109 186.399 115.595 187.294C115.082 188.189 114.385 188.885 113.505 189.384C112.625 189.883 111.613 190.132 110.469 190.132ZM104.287 194.268V178.34H106.311V181.486L106.179 184.192L106.399 186.898V194.268H104.287ZM110.293 188.284C111.041 188.284 111.709 188.115 112.295 187.778C112.897 187.441 113.366 186.964 113.703 186.348C114.055 185.717 114.231 184.991 114.231 184.17C114.231 183.334 114.055 182.615 113.703 182.014C113.366 181.398 112.897 180.921 112.295 180.584C111.709 180.247 111.041 180.078 110.293 180.078C109.56 180.078 108.893 180.247 108.291 180.584C107.705 180.921 107.235 181.398 106.883 182.014C106.546 182.615 106.377 183.334 106.377 184.17C106.377 184.991 106.546 185.717 106.883 186.348C107.235 186.964 107.705 187.441 108.291 187.778C108.893 188.115 109.56 188.284 110.293 188.284ZM126.782 185.226C126.166 185.519 125.528 185.754 124.868 185.93C124.222 186.091 123.555 186.172 122.866 186.172C121.458 186.172 120.343 185.842 119.522 185.182C118.715 184.522 118.312 183.503 118.312 182.124V178.34H120.424V181.992C120.424 182.828 120.68 183.444 121.194 183.84C121.722 184.236 122.426 184.434 123.306 184.434C123.863 184.434 124.435 184.361 125.022 184.214C125.623 184.067 126.21 183.862 126.782 183.598V185.226ZM126.628 190V178.34H128.74V190H126.628ZM138.032 190.132C136.785 190.132 135.685 189.875 134.732 189.362C133.793 188.849 133.06 188.145 132.532 187.25C132.019 186.355 131.762 185.329 131.762 184.17C131.762 183.011 132.011 181.985 132.51 181.09C133.023 180.195 133.72 179.499 134.6 179C135.495 178.487 136.499 178.23 137.614 178.23C138.743 178.23 139.741 178.479 140.606 178.978C141.471 179.477 142.146 180.181 142.63 181.09C143.129 181.985 143.378 183.033 143.378 184.236C143.378 184.324 143.371 184.427 143.356 184.544C143.356 184.661 143.349 184.771 143.334 184.874H133.412V183.356H142.234L141.376 183.884C141.391 183.136 141.237 182.469 140.914 181.882C140.591 181.295 140.144 180.841 139.572 180.518C139.015 180.181 138.362 180.012 137.614 180.012C136.881 180.012 136.228 180.181 135.656 180.518C135.084 180.841 134.637 181.303 134.314 181.904C133.991 182.491 133.83 183.165 133.83 183.928V184.28C133.83 185.057 134.006 185.754 134.358 186.37C134.725 186.971 135.231 187.441 135.876 187.778C136.521 188.115 137.262 188.284 138.098 188.284C138.787 188.284 139.411 188.167 139.968 187.932C140.54 187.697 141.039 187.345 141.464 186.876L142.63 188.24C142.102 188.856 141.442 189.325 140.65 189.648C139.873 189.971 139 190.132 138.032 190.132ZM151.736 190.132C150.548 190.132 149.485 189.875 148.546 189.362C147.622 188.849 146.896 188.145 146.368 187.25C145.84 186.355 145.576 185.329 145.576 184.17C145.576 183.011 145.84 181.985 146.368 181.09C146.896 180.195 147.622 179.499 148.546 179C149.485 178.487 150.548 178.23 151.736 178.23C152.792 178.23 153.731 178.443 154.552 178.868C155.388 179.279 156.034 179.895 156.488 180.716L154.882 181.75C154.501 181.178 154.032 180.76 153.474 180.496C152.932 180.217 152.345 180.078 151.714 180.078C150.952 180.078 150.27 180.247 149.668 180.584C149.067 180.921 148.59 181.398 148.238 182.014C147.886 182.615 147.71 183.334 147.71 184.17C147.71 185.006 147.886 185.732 148.238 186.348C148.59 186.964 149.067 187.441 149.668 187.778C150.27 188.115 150.952 188.284 151.714 188.284C152.345 188.284 152.932 188.152 153.474 187.888C154.032 187.609 154.501 187.184 154.882 186.612L156.488 187.624C156.034 188.431 155.388 189.054 154.552 189.494C153.731 189.919 152.792 190.132 151.736 190.132ZM167.671 190L163.161 184.324L164.899 183.268L170.157 190H167.671ZM159.223 190V178.34H161.335V190H159.223ZM160.697 185.072V183.268H164.547V185.072H160.697ZM165.075 184.412L163.117 184.148L167.583 178.34H169.849L165.075 184.412ZM172.371 190V178.34H174.483V186.832L181.633 178.34H183.547V190H181.435V181.508L174.307 190H172.371ZM187.647 190V178.34H189.759V186.832L196.909 178.34H198.823V190H196.711V181.508L189.583 190H187.647ZM193.103 176.822C192.032 176.822 191.189 176.565 190.573 176.052C189.971 175.524 189.663 174.769 189.649 173.786H191.079C191.093 174.343 191.277 174.783 191.629 175.106C191.995 175.429 192.479 175.59 193.081 175.59C193.682 175.59 194.166 175.429 194.533 175.106C194.899 174.783 195.09 174.343 195.105 173.786H196.579C196.564 174.769 196.249 175.524 195.633 176.052C195.017 176.565 194.173 176.822 193.103 176.822ZM208.83 190V178.34H219.632V190H217.52V179.66L218.026 180.188H210.436L210.942 179.66V190H208.83ZM228.713 190.132C227.54 190.132 226.498 189.875 225.589 189.362C224.68 188.849 223.961 188.145 223.433 187.25C222.905 186.341 222.641 185.314 222.641 184.17C222.641 183.011 222.905 181.985 223.433 181.09C223.961 180.195 224.68 179.499 225.589 179C226.498 178.487 227.54 178.23 228.713 178.23C229.872 178.23 230.906 178.487 231.815 179C232.739 179.499 233.458 180.195 233.971 181.09C234.499 181.97 234.763 182.997 234.763 184.17C234.763 185.329 234.499 186.355 233.971 187.25C233.458 188.145 232.739 188.849 231.815 189.362C230.906 189.875 229.872 190.132 228.713 190.132ZM228.713 188.284C229.461 188.284 230.128 188.115 230.715 187.778C231.316 187.441 231.786 186.964 232.123 186.348C232.46 185.717 232.629 184.991 232.629 184.17C232.629 183.334 232.46 182.615 232.123 182.014C231.786 181.398 231.316 180.921 230.715 180.584C230.128 180.247 229.461 180.078 228.713 180.078C227.965 180.078 227.298 180.247 226.711 180.584C226.124 180.921 225.655 181.398 225.303 182.014C224.951 182.615 224.775 183.334 224.775 184.17C224.775 184.991 224.951 185.717 225.303 186.348C225.655 186.964 226.124 187.441 226.711 187.778C227.298 188.115 227.965 188.284 228.713 188.284ZM237.813 190V178.34H239.925V186.832L247.075 178.34H248.989V190H246.877V181.508L239.749 190H237.813ZM258.17 190.132C256.982 190.132 255.919 189.875 254.98 189.362C254.056 188.849 253.33 188.145 252.802 187.25C252.274 186.355 252.01 185.329 252.01 184.17C252.01 183.011 252.274 181.985 252.802 181.09C253.33 180.195 254.056 179.499 254.98 179C255.919 178.487 256.982 178.23 258.17 178.23C259.226 178.23 260.165 178.443 260.986 178.868C261.822 179.279 262.467 179.895 262.922 180.716L261.316 181.75C260.935 181.178 260.465 180.76 259.908 180.496C259.365 180.217 258.779 180.078 258.148 180.078C257.385 180.078 256.703 180.247 256.102 180.584C255.501 180.921 255.024 181.398 254.672 182.014C254.32 182.615 254.144 183.334 254.144 184.17C254.144 185.006 254.32 185.732 254.672 186.348C255.024 186.964 255.501 187.441 256.102 187.778C256.703 188.115 257.385 188.284 258.148 188.284C258.779 188.284 259.365 188.152 259.908 187.888C260.465 187.609 260.935 187.184 261.316 186.612L262.922 187.624C262.467 188.431 261.822 189.054 260.986 189.494C260.165 189.919 259.226 190.132 258.17 190.132ZM274.104 190L269.594 184.324L271.332 183.268L276.59 190H274.104ZM265.656 190V178.34H267.768V190H265.656ZM267.13 185.072V183.268H270.98V185.072H267.13ZM271.508 184.412L269.55 184.148L274.016 178.34H276.282L271.508 184.412ZM284.713 190V178.34H290.125C291.489 178.34 292.56 178.604 293.337 179.132C294.129 179.645 294.525 180.379 294.525 181.332C294.525 182.285 294.151 183.026 293.403 183.554C292.67 184.067 291.694 184.324 290.477 184.324L290.807 183.752C292.2 183.752 293.234 184.009 293.909 184.522C294.584 185.035 294.921 185.791 294.921 186.788C294.921 187.8 294.54 188.592 293.777 189.164C293.029 189.721 291.878 190 290.323 190H284.713ZM286.781 188.372H290.169C291.049 188.372 291.709 188.24 292.149 187.976C292.589 187.697 292.809 187.257 292.809 186.656C292.809 186.04 292.604 185.593 292.193 185.314C291.797 185.021 291.166 184.874 290.301 184.874H286.781V188.372ZM286.781 183.356H289.949C290.756 183.356 291.364 183.209 291.775 182.916C292.2 182.608 292.413 182.183 292.413 181.64C292.413 181.083 292.2 180.665 291.775 180.386C291.364 180.107 290.756 179.968 289.949 179.968H286.781V183.356ZM303.309 190.132C302.121 190.132 301.057 189.875 300.119 189.362C299.195 188.849 298.469 188.145 297.941 187.25C297.413 186.355 297.149 185.329 297.149 184.17C297.149 183.011 297.413 181.985 297.941 181.09C298.469 180.195 299.195 179.499 300.119 179C301.057 178.487 302.121 178.23 303.309 178.23C304.365 178.23 305.303 178.443 306.125 178.868C306.961 179.279 307.606 179.895 308.061 180.716L306.455 181.75C306.073 181.178 305.604 180.76 305.047 180.496C304.504 180.217 303.917 180.078 303.287 180.078C302.524 180.078 301.842 180.247 301.241 180.584C300.639 180.921 300.163 181.398 299.811 182.014C299.459 182.615 299.283 183.334 299.283 184.17C299.283 185.006 299.459 185.732 299.811 186.348C300.163 186.964 300.639 187.441 301.241 187.778C301.842 188.115 302.524 188.284 303.287 188.284C303.917 188.284 304.504 188.152 305.047 187.888C305.604 187.609 306.073 187.184 306.455 186.612L308.061 187.624C307.606 188.431 306.961 189.054 306.125 189.494C305.303 189.919 304.365 190.132 303.309 190.132ZM315.815 190.132C314.568 190.132 313.468 189.875 312.515 189.362C311.576 188.849 310.843 188.145 310.315 187.25C309.802 186.355 309.545 185.329 309.545 184.17C309.545 183.011 309.794 181.985 310.293 181.09C310.806 180.195 311.503 179.499 312.383 179C313.278 178.487 314.282 178.23 315.397 178.23C316.526 178.23 317.524 178.479 318.389 178.978C319.254 179.477 319.929 180.181 320.413 181.09C320.912 181.985 321.161 183.033 321.161 184.236C321.161 184.324 321.154 184.427 321.139 184.544C321.139 184.661 321.132 184.771 321.117 184.874H311.195V183.356H320.017L319.159 183.884C319.174 183.136 319.02 182.469 318.697 181.882C318.374 181.295 317.927 180.841 317.355 180.518C316.798 180.181 316.145 180.012 315.397 180.012C314.664 180.012 314.011 180.181 313.439 180.518C312.867 180.841 312.42 181.303 312.097 181.904C311.774 182.491 311.613 183.165 311.613 183.928V184.28C311.613 185.057 311.789 185.754 312.141 186.37C312.508 186.971 313.014 187.441 313.659 187.778C314.304 188.115 315.045 188.284 315.881 188.284C316.57 188.284 317.194 188.167 317.751 187.932C318.323 187.697 318.822 187.345 319.247 186.876L320.413 188.24C319.885 188.856 319.225 189.325 318.433 189.648C317.656 189.971 316.783 190.132 315.815 190.132ZM324.438 190V178.34H333.018V180.188H326.044L326.55 179.704V190H324.438ZM342.392 189.01V180.188H337.332L337.222 182.432C337.193 183.165 337.141 183.877 337.068 184.566C337.009 185.241 336.907 185.864 336.76 186.436C336.628 187.008 336.43 187.477 336.166 187.844C335.902 188.211 335.55 188.438 335.11 188.526L333.02 188.152C333.475 188.167 333.841 188.02 334.12 187.712C334.399 187.389 334.611 186.949 334.758 186.392C334.919 185.835 335.037 185.204 335.11 184.5C335.183 183.781 335.242 183.041 335.286 182.278L335.462 178.34H344.504V189.01H342.392ZM332.558 192.706V188.152H346.286V192.706H344.306V190H334.56V192.706H332.558ZM356.187 190V187.536L356.077 187.074V182.872C356.077 181.977 355.813 181.288 355.285 180.804C354.772 180.305 353.995 180.056 352.953 180.056C352.264 180.056 351.589 180.173 350.929 180.408C350.269 180.628 349.712 180.929 349.257 181.31L348.377 179.726C348.979 179.242 349.697 178.875 350.533 178.626C351.384 178.362 352.271 178.23 353.195 178.23C354.794 178.23 356.026 178.619 356.891 179.396C357.757 180.173 358.189 181.361 358.189 182.96V190H356.187ZM352.359 190.132C351.494 190.132 350.731 189.985 350.071 189.692C349.426 189.399 348.927 188.995 348.575 188.482C348.223 187.954 348.047 187.36 348.047 186.7C348.047 186.069 348.194 185.497 348.487 184.984C348.795 184.471 349.287 184.06 349.961 183.752C350.651 183.444 351.575 183.29 352.733 183.29H356.429V184.808H352.821C351.765 184.808 351.054 184.984 350.687 185.336C350.321 185.688 350.137 186.113 350.137 186.612C350.137 187.184 350.365 187.646 350.819 187.998C351.274 188.335 351.905 188.504 352.711 188.504C353.503 188.504 354.193 188.328 354.779 187.976C355.381 187.624 355.813 187.111 356.077 186.436L356.495 187.888C356.217 188.577 355.725 189.127 355.021 189.538C354.317 189.934 353.43 190.132 352.359 190.132ZM373.29 190.176C372.322 190.176 371.464 190.022 370.716 189.714C369.983 189.406 369.352 188.951 368.824 188.35C368.296 187.734 367.893 186.964 367.614 186.04C367.35 185.101 367.218 184.001 367.218 182.74C367.218 181.743 367.306 180.848 367.482 180.056C367.658 179.264 367.908 178.56 368.23 177.944C368.568 177.328 368.978 176.793 369.462 176.338C369.961 175.883 370.518 175.509 371.134 175.216C371.765 174.908 372.454 174.673 373.202 174.512L378.526 173.324L378.834 175.282L373.928 176.338C373.635 176.397 373.283 176.485 372.872 176.602C372.462 176.719 372.044 176.903 371.618 177.152C371.193 177.387 370.797 177.717 370.43 178.142C370.064 178.567 369.77 179.125 369.55 179.814C369.33 180.489 369.22 181.325 369.22 182.322C369.22 182.601 369.228 182.813 369.242 182.96C369.257 183.107 369.272 183.253 369.286 183.4C369.316 183.547 369.338 183.767 369.352 184.06L368.472 183.158C368.707 182.351 369.081 181.647 369.594 181.046C370.108 180.445 370.724 179.983 371.442 179.66C372.176 179.323 372.975 179.154 373.84 179.154C374.926 179.154 375.886 179.389 376.722 179.858C377.573 180.327 378.24 180.973 378.724 181.794C379.208 182.615 379.45 183.554 379.45 184.61C379.45 185.681 379.194 186.641 378.68 187.492C378.182 188.328 377.47 188.988 376.546 189.472C375.622 189.941 374.537 190.176 373.29 190.176ZM373.488 188.416C374.236 188.416 374.896 188.255 375.468 187.932C376.04 187.595 376.488 187.147 376.81 186.59C377.133 186.018 377.294 185.38 377.294 184.676C377.294 183.972 377.133 183.349 376.81 182.806C376.488 182.263 376.04 181.838 375.468 181.53C374.896 181.207 374.222 181.046 373.444 181.046C372.711 181.046 372.051 181.2 371.464 181.508C370.878 181.801 370.423 182.219 370.1 182.762C369.778 183.29 369.616 183.906 369.616 184.61C369.616 185.314 369.778 185.959 370.1 186.546C370.438 187.118 370.892 187.573 371.464 187.91C372.051 188.247 372.726 188.416 373.488 188.416ZM393.995 190V178.34H396.107V190H393.995ZM387.725 182.3C389.206 182.315 390.328 182.652 391.091 183.312C391.868 183.972 392.257 184.903 392.257 186.106C392.257 187.367 391.832 188.343 390.981 189.032C390.145 189.707 388.942 190.037 387.373 190.022L382.467 190V178.34H384.579V182.278L387.725 182.3ZM387.219 188.416C388.158 188.431 388.876 188.24 389.375 187.844C389.874 187.448 390.123 186.861 390.123 186.084C390.123 185.321 389.874 184.764 389.375 184.412C388.891 184.06 388.172 183.877 387.219 183.862L384.579 183.818V188.394L387.219 188.416ZM398.277 189.978L398.409 188.196C398.512 188.211 398.607 188.225 398.695 188.24C398.783 188.255 398.864 188.262 398.937 188.262C399.406 188.262 399.773 188.101 400.037 187.778C400.316 187.455 400.521 187.03 400.653 186.502C400.785 185.959 400.88 185.351 400.939 184.676C400.998 184.001 401.042 183.327 401.071 182.652L401.269 178.34H410.223V190H408.111V179.572L408.617 180.188H402.633L403.117 179.55L402.963 182.784C402.919 183.811 402.838 184.771 402.721 185.666C402.604 186.561 402.42 187.345 402.171 188.02C401.936 188.695 401.606 189.223 401.181 189.604C400.77 189.985 400.235 190.176 399.575 190.176C399.384 190.176 399.179 190.154 398.959 190.11C398.754 190.081 398.526 190.037 398.277 189.978ZM428.179 189.01V180.188H423.119L423.009 182.432C422.98 183.165 422.928 183.877 422.855 184.566C422.796 185.241 422.694 185.864 422.547 186.436C422.415 187.008 422.217 187.477 421.953 187.844C421.689 188.211 421.337 188.438 420.897 188.526L418.807 188.152C419.262 188.167 419.628 188.02 419.907 187.712C420.186 187.389 420.398 186.949 420.545 186.392C420.706 185.835 420.824 185.204 420.897 184.5C420.97 183.781 421.029 183.041 421.073 182.278L421.249 178.34H430.291V189.01H428.179ZM418.345 192.706V188.152H432.073V192.706H430.093V190H420.347V192.706H418.345ZM432.888 189.978L433.02 188.196C433.123 188.211 433.218 188.225 433.306 188.24C433.394 188.255 433.475 188.262 433.548 188.262C434.018 188.262 434.384 188.101 434.648 187.778C434.927 187.455 435.132 187.03 435.264 186.502C435.396 185.959 435.492 185.351 435.55 184.676C435.609 184.001 435.653 183.327 435.682 182.652L435.88 178.34H444.834V190H442.722V179.572L443.228 180.188H437.244L437.728 179.55L437.574 182.784C437.53 183.811 437.45 184.771 437.332 185.666C437.215 186.561 437.032 187.345 436.782 188.02C436.548 188.695 436.218 189.223 435.792 189.604C435.382 189.985 434.846 190.176 434.186 190.176C433.996 190.176 433.79 190.154 433.57 190.11C433.365 190.081 433.138 190.037 432.888 189.978ZM456.376 190V185.908L456.706 186.304H452.988C451.433 186.304 450.216 185.974 449.336 185.314C448.471 184.654 448.038 183.693 448.038 182.432C448.038 181.083 448.5 180.063 449.424 179.374C450.363 178.685 451.609 178.34 453.164 178.34H458.268V190H456.376ZM447.928 190L451.096 185.534H453.274L450.194 190H447.928ZM456.376 185.248V179.594L456.706 180.188H453.23C452.262 180.188 451.514 180.371 450.986 180.738C450.458 181.09 450.194 181.677 450.194 182.498C450.194 184.023 451.177 184.786 453.142 184.786H456.706L456.376 185.248ZM106.694 226V215.638L107.222 216.188H102.426V214.34H113.074V216.188H108.3L108.806 215.638V226H106.694ZM119.91 226.132C118.663 226.132 117.563 225.875 116.61 225.362C115.671 224.849 114.938 224.145 114.41 223.25C113.897 222.355 113.64 221.329 113.64 220.17C113.64 219.011 113.889 217.985 114.388 217.09C114.901 216.195 115.598 215.499 116.478 215C117.373 214.487 118.377 214.23 119.492 214.23C120.621 214.23 121.619 214.479 122.484 214.978C123.349 215.477 124.024 216.181 124.508 217.09C125.007 217.985 125.256 219.033 125.256 220.236C125.256 220.324 125.249 220.427 125.234 220.544C125.234 220.661 125.227 220.771 125.212 220.874H115.29V219.356H124.112L123.254 219.884C123.269 219.136 123.115 218.469 122.792 217.882C122.469 217.295 122.022 216.841 121.45 216.518C120.893 216.181 120.24 216.012 119.492 216.012C118.759 216.012 118.106 216.181 117.534 216.518C116.962 216.841 116.515 217.303 116.192 217.904C115.869 218.491 115.708 219.165 115.708 219.928V220.28C115.708 221.057 115.884 221.754 116.236 222.37C116.603 222.971 117.109 223.441 117.754 223.778C118.399 224.115 119.14 224.284 119.976 224.284C120.665 224.284 121.289 224.167 121.846 223.932C122.418 223.697 122.917 223.345 123.342 222.876L124.508 224.24C123.98 224.856 123.32 225.325 122.528 225.648C121.751 225.971 120.878 226.132 119.91 226.132ZM135.36 226V223.536L135.25 223.074V218.872C135.25 217.977 134.986 217.288 134.458 216.804C133.945 216.305 133.167 216.056 132.126 216.056C131.437 216.056 130.762 216.173 130.102 216.408C129.442 216.628 128.885 216.929 128.43 217.31L127.55 215.726C128.151 215.242 128.87 214.875 129.706 214.626C130.557 214.362 131.444 214.23 132.368 214.23C133.967 214.23 135.199 214.619 136.064 215.396C136.929 216.173 137.362 217.361 137.362 218.96V226H135.36ZM131.532 226.132C130.667 226.132 129.904 225.985 129.244 225.692C128.599 225.399 128.1 224.995 127.748 224.482C127.396 223.954 127.22 223.36 127.22 222.7C127.22 222.069 127.367 221.497 127.66 220.984C127.968 220.471 128.459 220.06 129.134 219.752C129.823 219.444 130.747 219.29 131.906 219.29H135.602V220.808H131.994C130.938 220.808 130.227 220.984 129.86 221.336C129.493 221.688 129.31 222.113 129.31 222.612C129.31 223.184 129.537 223.646 129.992 223.998C130.447 224.335 131.077 224.504 131.884 224.504C132.676 224.504 133.365 224.328 133.952 223.976C134.553 223.624 134.986 223.111 135.25 222.436L135.668 223.888C135.389 224.577 134.898 225.127 134.194 225.538C133.49 225.934 132.603 226.132 131.532 226.132ZM143.475 226V215.638L144.003 216.188H139.207V214.34H149.855V216.188H145.081L145.587 215.638V226H143.475ZM158.197 226.132C157.229 226.132 156.341 225.912 155.535 225.472C154.743 225.017 154.105 224.35 153.621 223.47C153.151 222.59 152.917 221.49 152.917 220.17C152.917 218.85 153.144 217.75 153.599 216.87C154.068 215.99 154.699 215.33 155.491 214.89C156.297 214.45 157.199 214.23 158.197 214.23C159.341 214.23 160.353 214.479 161.233 214.978C162.113 215.477 162.809 216.173 163.323 217.068C163.836 217.948 164.093 218.982 164.093 220.17C164.093 221.358 163.836 222.399 163.323 223.294C162.809 224.189 162.113 224.885 161.233 225.384C160.353 225.883 159.341 226.132 158.197 226.132ZM152.015 230.268V214.34H154.039V217.486L153.907 220.192L154.127 222.898V230.268H152.015ZM158.021 224.284C158.769 224.284 159.436 224.115 160.023 223.778C160.624 223.441 161.093 222.964 161.431 222.348C161.783 221.717 161.959 220.991 161.959 220.17C161.959 219.334 161.783 218.615 161.431 218.014C161.093 217.398 160.624 216.921 160.023 216.584C159.436 216.247 158.769 216.078 158.021 216.078C157.287 216.078 156.62 216.247 156.019 216.584C155.432 216.921 154.963 217.398 154.611 218.014C154.273 218.615 154.105 219.334 154.105 220.17C154.105 220.991 154.273 221.717 154.611 222.348C154.963 222.964 155.432 223.441 156.019 223.778C156.62 224.115 157.287 224.284 158.021 224.284ZM174.204 226V223.536L174.094 223.074V218.872C174.094 217.977 173.83 217.288 173.302 216.804C172.788 216.305 172.011 216.056 170.97 216.056C170.28 216.056 169.606 216.173 168.946 216.408C168.286 216.628 167.728 216.929 167.274 217.31L166.394 215.726C166.995 215.242 167.714 214.875 168.55 214.626C169.4 214.362 170.288 214.23 171.212 214.23C172.81 214.23 174.042 214.619 174.908 215.396C175.773 216.173 176.206 217.361 176.206 218.96V226H174.204ZM170.376 226.132C169.51 226.132 168.748 225.985 168.088 225.692C167.442 225.399 166.944 224.995 166.592 224.482C166.24 223.954 166.064 223.36 166.064 222.7C166.064 222.069 166.21 221.497 166.504 220.984C166.812 220.471 167.303 220.06 167.978 219.752C168.667 219.444 169.591 219.29 170.75 219.29H174.446V220.808H170.838C169.782 220.808 169.07 220.984 168.704 221.336C168.337 221.688 168.154 222.113 168.154 222.612C168.154 223.184 168.381 223.646 168.836 223.998C169.29 224.335 169.921 224.504 170.728 224.504C171.52 224.504 172.209 224.328 172.796 223.976C173.397 223.624 173.83 223.111 174.094 222.436L174.512 223.888C174.233 224.577 173.742 225.127 173.038 225.538C172.334 225.934 171.446 226.132 170.376 226.132ZM190.911 226.132C189.738 226.132 188.696 225.875 187.787 225.362C186.878 224.849 186.159 224.145 185.631 223.25C185.103 222.341 184.839 221.314 184.839 220.17C184.839 219.011 185.103 217.985 185.631 217.09C186.159 216.195 186.878 215.499 187.787 215C188.696 214.487 189.738 214.23 190.911 214.23C192.07 214.23 193.104 214.487 194.013 215C194.937 215.499 195.656 216.195 196.169 217.09C196.697 217.97 196.961 218.997 196.961 220.17C196.961 221.329 196.697 222.355 196.169 223.25C195.656 224.145 194.937 224.849 194.013 225.362C193.104 225.875 192.07 226.132 190.911 226.132ZM190.911 224.284C191.659 224.284 192.326 224.115 192.913 223.778C193.514 223.441 193.984 222.964 194.321 222.348C194.658 221.717 194.827 220.991 194.827 220.17C194.827 219.334 194.658 218.615 194.321 218.014C193.984 217.398 193.514 216.921 192.913 216.584C192.326 216.247 191.659 216.078 190.911 216.078C190.163 216.078 189.496 216.247 188.909 216.584C188.322 216.921 187.853 217.398 187.501 218.014C187.149 218.615 186.973 219.334 186.973 220.17C186.973 220.991 187.149 221.717 187.501 222.348C187.853 222.964 188.322 223.441 188.909 223.778C189.496 224.115 190.163 224.284 190.911 224.284ZM205.093 226.132C203.905 226.132 202.842 225.875 201.903 225.362C200.979 224.849 200.253 224.145 199.725 223.25C199.197 222.355 198.933 221.329 198.933 220.17C198.933 219.011 199.197 217.985 199.725 217.09C200.253 216.195 200.979 215.499 201.903 215C202.842 214.487 203.905 214.23 205.093 214.23C206.149 214.23 207.088 214.443 207.909 214.868C208.745 215.279 209.39 215.895 209.845 216.716L208.239 217.75C207.858 217.178 207.388 216.76 206.831 216.496C206.288 216.217 205.702 216.078 205.071 216.078C204.308 216.078 203.626 216.247 203.025 216.584C202.424 216.921 201.947 217.398 201.595 218.014C201.243 218.615 201.067 219.334 201.067 220.17C201.067 221.006 201.243 221.732 201.595 222.348C201.947 222.964 202.424 223.441 203.025 223.778C203.626 224.115 204.308 224.284 205.071 224.284C205.702 224.284 206.288 224.152 206.831 223.888C207.388 223.609 207.858 223.184 208.239 222.612L209.845 223.624C209.39 224.431 208.745 225.054 207.909 225.494C207.088 225.919 206.149 226.132 205.093 226.132ZM212.579 226V214.34H214.691V219.29H221.335V214.34H223.447V226H221.335V221.116H214.691V226H212.579ZM232.548 226.132C231.374 226.132 230.333 225.875 229.424 225.362C228.514 224.849 227.796 224.145 227.268 223.25C226.74 222.341 226.476 221.314 226.476 220.17C226.476 219.011 226.74 217.985 227.268 217.09C227.796 216.195 228.514 215.499 229.424 215C230.333 214.487 231.374 214.23 232.548 214.23C233.706 214.23 234.74 214.487 235.65 215C236.574 215.499 237.292 216.195 237.806 217.09C238.334 217.97 238.598 218.997 238.598 220.17C238.598 221.329 238.334 222.355 237.806 223.25C237.292 224.145 236.574 224.849 235.65 225.362C234.74 225.875 233.706 226.132 232.548 226.132ZM232.548 224.284C233.296 224.284 233.963 224.115 234.55 223.778C235.151 223.441 235.62 222.964 235.958 222.348C236.295 221.717 236.464 220.991 236.464 220.17C236.464 219.334 236.295 218.615 235.958 218.014C235.62 217.398 235.151 216.921 234.55 216.584C233.963 216.247 233.296 216.078 232.548 216.078C231.8 216.078 231.132 216.247 230.546 216.584C229.959 216.921 229.49 217.398 229.138 218.014C228.786 218.615 228.61 219.334 228.61 220.17C228.61 220.991 228.786 221.717 229.138 222.348C229.49 222.964 229.959 223.441 230.546 223.778C231.132 224.115 231.8 224.284 232.548 224.284ZM241.648 226V214.34H247.06C248.424 214.34 249.494 214.604 250.272 215.132C251.064 215.645 251.46 216.379 251.46 217.332C251.46 218.285 251.086 219.026 250.338 219.554C249.604 220.067 248.629 220.324 247.412 220.324L247.742 219.752C249.135 219.752 250.169 220.009 250.844 220.522C251.518 221.035 251.856 221.791 251.856 222.788C251.856 223.8 251.474 224.592 250.712 225.164C249.964 225.721 248.812 226 247.258 226H241.648ZM243.716 224.372H247.104C247.984 224.372 248.644 224.24 249.084 223.976C249.524 223.697 249.744 223.257 249.744 222.656C249.744 222.04 249.538 221.593 249.128 221.314C248.732 221.021 248.101 220.874 247.236 220.874H243.716V224.372ZM243.716 219.356H246.884C247.69 219.356 248.299 219.209 248.71 218.916C249.135 218.608 249.348 218.183 249.348 217.64C249.348 217.083 249.135 216.665 248.71 216.386C248.299 216.107 247.69 215.968 246.884 215.968H243.716V219.356ZM260.155 226.132C258.982 226.132 257.941 225.875 257.031 225.362C256.122 224.849 255.403 224.145 254.875 223.25C254.347 222.341 254.083 221.314 254.083 220.17C254.083 219.011 254.347 217.985 254.875 217.09C255.403 216.195 256.122 215.499 257.031 215C257.941 214.487 258.982 214.23 260.155 214.23C261.314 214.23 262.348 214.487 263.257 215C264.181 215.499 264.9 216.195 265.413 217.09C265.941 217.97 266.205 218.997 266.205 220.17C266.205 221.329 265.941 222.355 265.413 223.25C264.9 224.145 264.181 224.849 263.257 225.362C262.348 225.875 261.314 226.132 260.155 226.132ZM260.155 224.284C260.903 224.284 261.571 224.115 262.157 223.778C262.759 223.441 263.228 222.964 263.565 222.348C263.903 221.717 264.071 220.991 264.071 220.17C264.071 219.334 263.903 218.615 263.565 218.014C263.228 217.398 262.759 216.921 262.157 216.584C261.571 216.247 260.903 216.078 260.155 216.078C259.407 216.078 258.74 216.247 258.153 216.584C257.567 216.921 257.097 217.398 256.745 218.014C256.393 218.615 256.217 219.334 256.217 220.17C256.217 220.991 256.393 221.717 256.745 222.348C257.097 222.964 257.567 223.441 258.153 223.778C258.74 224.115 259.407 224.284 260.155 224.284ZM269.255 226V214.34H280.057V226H277.945V215.66L278.451 216.188H270.861L271.367 215.66V226H269.255ZM289.138 226.132C287.964 226.132 286.923 225.875 286.014 225.362C285.104 224.849 284.386 224.145 283.858 223.25C283.33 222.341 283.066 221.314 283.066 220.17C283.066 219.011 283.33 217.985 283.858 217.09C284.386 216.195 285.104 215.499 286.014 215C286.923 214.487 287.964 214.23 289.138 214.23C290.296 214.23 291.33 214.487 292.24 215C293.164 215.499 293.882 216.195 294.396 217.09C294.924 217.97 295.188 218.997 295.188 220.17C295.188 221.329 294.924 222.355 294.396 223.25C293.882 224.145 293.164 224.849 292.24 225.362C291.33 225.875 290.296 226.132 289.138 226.132ZM289.138 224.284C289.886 224.284 290.553 224.115 291.14 223.778C291.741 223.441 292.21 222.964 292.548 222.348C292.885 221.717 293.054 220.991 293.054 220.17C293.054 219.334 292.885 218.615 292.548 218.014C292.21 217.398 291.741 216.921 291.14 216.584C290.553 216.247 289.886 216.078 289.138 216.078C288.39 216.078 287.722 216.247 287.136 216.584C286.549 216.921 286.08 217.398 285.728 218.014C285.376 218.615 285.2 219.334 285.2 220.17C285.2 220.991 285.376 221.717 285.728 222.348C286.08 222.964 286.549 223.441 287.136 223.778C287.722 224.115 288.39 224.284 289.138 224.284ZM296.215 225.978L296.347 224.196C296.45 224.211 296.545 224.225 296.633 224.24C296.721 224.255 296.802 224.262 296.875 224.262C297.345 224.262 297.711 224.101 297.975 223.778C298.254 223.455 298.459 223.03 298.591 222.502C298.723 221.959 298.819 221.351 298.877 220.676C298.936 220.001 298.98 219.327 299.009 218.652L299.207 214.34H308.161V226H306.049V215.572L306.555 216.188H300.571L301.055 215.55L300.901 218.784C300.857 219.811 300.777 220.771 300.659 221.666C300.542 222.561 300.359 223.345 300.109 224.02C299.875 224.695 299.545 225.223 299.119 225.604C298.709 225.985 298.173 226.176 297.513 226.176C297.323 226.176 297.117 226.154 296.897 226.11C296.692 226.081 296.465 226.037 296.215 225.978ZM319.395 226V223.536L319.285 223.074V218.872C319.285 217.977 319.021 217.288 318.493 216.804C317.98 216.305 317.203 216.056 316.161 216.056C315.472 216.056 314.797 216.173 314.137 216.408C313.477 216.628 312.92 216.929 312.465 217.31L311.585 215.726C312.187 215.242 312.905 214.875 313.741 214.626C314.592 214.362 315.479 214.23 316.403 214.23C318.002 214.23 319.234 214.619 320.099 215.396C320.965 216.173 321.397 217.361 321.397 218.96V226H319.395ZM315.567 226.132C314.702 226.132 313.939 225.985 313.279 225.692C312.634 225.399 312.135 224.995 311.783 224.482C311.431 223.954 311.255 223.36 311.255 222.7C311.255 222.069 311.402 221.497 311.695 220.984C312.003 220.471 312.495 220.06 313.169 219.752C313.859 219.444 314.783 219.29 315.941 219.29H319.637V220.808H316.029C314.973 220.808 314.262 220.984 313.895 221.336C313.529 221.688 313.345 222.113 313.345 222.612C313.345 223.184 313.573 223.646 314.027 223.998C314.482 224.335 315.113 224.504 315.919 224.504C316.711 224.504 317.401 224.328 317.987 223.976C318.589 223.624 319.021 223.111 319.285 222.436L319.703 223.888C319.425 224.577 318.933 225.127 318.229 225.538C317.525 225.934 316.638 226.132 315.567 226.132ZM325.2 226V214.34H333.78V216.188H326.806L327.312 215.704V226H325.2ZM343.092 226V223.536L342.982 223.074V218.872C342.982 217.977 342.718 217.288 342.19 216.804C341.677 216.305 340.9 216.056 339.858 216.056C339.169 216.056 338.494 216.173 337.834 216.408C337.174 216.628 336.617 216.929 336.162 217.31L335.282 215.726C335.884 215.242 336.602 214.875 337.438 214.626C338.289 214.362 339.176 214.23 340.1 214.23C341.699 214.23 342.931 214.619 343.796 215.396C344.662 216.173 345.094 217.361 345.094 218.96V226H343.092ZM339.264 226.132C338.399 226.132 337.636 225.985 336.976 225.692C336.331 225.399 335.832 224.995 335.48 224.482C335.128 223.954 334.952 223.36 334.952 222.7C334.952 222.069 335.099 221.497 335.392 220.984C335.7 220.471 336.192 220.06 336.866 219.752C337.556 219.444 338.48 219.29 339.638 219.29H343.334V220.808H339.726C338.67 220.808 337.959 220.984 337.592 221.336C337.226 221.688 337.042 222.113 337.042 222.612C337.042 223.184 337.27 223.646 337.724 223.998C338.179 224.335 338.81 224.504 339.616 224.504C340.408 224.504 341.098 224.328 341.684 223.976C342.286 223.624 342.718 223.111 342.982 222.436L343.4 223.888C343.122 224.577 342.63 225.127 341.926 225.538C341.222 225.934 340.335 226.132 339.264 226.132ZM348.898 226V214.34H351.01V219.114H354.53V221.072H351.01V226H348.898ZM359.216 226.132C358.072 226.132 357.052 225.875 356.158 225.362C355.278 224.849 354.581 224.145 354.068 223.25C353.554 222.341 353.298 221.314 353.298 220.17C353.298 219.011 353.554 217.985 354.068 217.09C354.581 216.181 355.278 215.477 356.158 214.978C357.052 214.479 358.072 214.23 359.216 214.23C360.345 214.23 361.357 214.479 362.252 214.978C363.146 215.477 363.85 216.181 364.364 217.09C364.877 217.985 365.134 219.011 365.134 220.17C365.134 221.329 364.877 222.355 364.364 223.25C363.85 224.145 363.146 224.849 362.252 225.362C361.357 225.875 360.345 226.132 359.216 226.132ZM359.216 224.284C359.949 224.284 360.602 224.115 361.174 223.778C361.746 223.426 362.2 222.949 362.538 222.348C362.875 221.732 363.044 221.006 363.044 220.17C363.044 219.334 362.875 218.615 362.538 218.014C362.2 217.398 361.746 216.921 361.174 216.584C360.602 216.247 359.949 216.078 359.216 216.078C358.497 216.078 357.844 216.247 357.258 216.584C356.686 216.921 356.231 217.398 355.894 218.014C355.556 218.615 355.388 219.334 355.388 220.17C355.388 221.006 355.556 221.732 355.894 222.348C356.231 222.949 356.686 223.426 357.258 223.778C357.844 224.115 358.497 224.284 359.216 224.284ZM375.913 224.152L375.429 224.702V214.34H377.541V224.702L377.013 224.152H383.173L382.667 224.702V214.34H384.779V226H368.169V214.34H370.281V224.702L369.775 224.152H375.913ZM384.515 228.486V225.45L385.021 226H382.557V224.152H386.495V228.486H384.515ZM388.88 226V214.34H390.992V222.832L398.142 214.34H400.056V226H397.944V217.508L390.816 226H388.88ZM404.155 226V214.34H406.333L411.349 222.964H410.469L415.617 214.34H417.597V226H415.683V216.716L416.035 216.914L411.327 224.68H410.403L405.673 216.76L406.091 216.672V226H404.155Z" fill="#F7E99F"/>
</svg>
