<svg width="26" height="16" viewBox="0 0 26 16" fill="none" xmlns="http://www.w3.org/2000/svg">
<path fill-rule="evenodd" clip-rule="evenodd" d="M25.388 1.11111C25.5808 0.484444 25.388 0.0288887 24.5348 0.0288887H21.6981C20.9826 0.0288887 20.6522 0.427778 20.4593 0.854444C20.4593 0.854444 19.0001 4.49889 16.9623 6.86167C16.3015 7.545 15.9987 7.77278 15.6406 7.77278C15.4478 7.77278 15.1997 7.545 15.1997 6.91889V1.08167C15.1997 0.341667 14.9798 0 14.3737 0H9.91251C9.4716 0 9.19643 0.341667 9.19643 0.683334C9.19643 1.395 10.2153 1.56611 10.3253 3.55889V7.88889C10.3253 8.82833 10.1628 9 9.80201 9C8.83839 9 6.49784 5.32722 5.09384 1.14222C4.82084 0.313333 4.54351 0 3.82742 0H0.963626C0.137584 0 0 0.398333 0 0.825556C0 1.59444 0.963626 5.46611 4.48826 10.5906C6.8288 14.0906 10.1606 15.9717 13.162 15.9717C14.9798 15.9717 15.1997 15.5444 15.1997 14.8328V12.185C15.1997 11.3311 15.3649 11.1889 15.9434 11.1889C16.3562 11.1889 17.0999 11.4161 18.7796 13.0961C20.7069 15.0889 21.0373 16 22.1114 16H24.9476C25.7736 16 26.1593 15.5728 25.9388 14.7472C25.6913 13.9217 24.7547 12.7261 23.543 11.3028C22.8822 10.5061 21.8909 9.62333 21.5882 9.19611C21.1754 8.62667 21.2854 8.39889 21.5882 7.88667C21.5605 7.88667 25.0305 2.81889 25.388 1.10889" fill="#8CABFA"/>
</svg>
